<?xml version="1.0" standalone="no"?>
<!DOCTYPE svg PUBLIC "-//W3C//DTD SVG 1.1//EN" "http://www.w3.org/Graphics/SVG/1.1/DTD/svg11.dtd" >
<svg xmlns="http://www.w3.org/2000/svg">
<metadata></metadata>
<defs>
<font id="din_lightregular" horiz-adv-x="1137" >
<font-face units-per-em="2048" ascent="1638" descent="-410" />
<missing-glyph horiz-adv-x="563" />
<glyph horiz-adv-x="2048" />
<glyph horiz-adv-x="2048" />
<glyph unicode="&#xd;" horiz-adv-x="0" />
<glyph unicode=" "  horiz-adv-x="563" />
<glyph unicode="&#x09;" horiz-adv-x="563" />
<glyph unicode="&#xa0;" horiz-adv-x="563" />
<glyph unicode="!" horiz-adv-x="672" d="M294 0v148h149v-148h-149zM308 1575h121l-7 -1151h-108z" />
<glyph unicode="&#x22;" horiz-adv-x="902" d="M211 1230v345h139v-345h-139zM553 1230v345h139v-345h-139z" />
<glyph unicode="#" horiz-adv-x="1413" d="M186 531v98h228l55 338h-220v99h233l80 509h115l-82 -509h387l80 509h110l-79 -509h207v-99h-221l-55 -338h213v-98h-228l-85 -531h-112l85 531h-388l-82 -531h-113l85 531h-213zM524 629h388l55 338h-387z" />
<glyph unicode="$" horiz-adv-x="1298" d="M112 194l85 85q98 -96 184 -136.5t205 -47.5v652l-35 5q-86 13 -159 44.5t-122 70.5q-124 106 -124 290q0 90 30.5 167t87 132.5t138 89t184.5 39.5v198h100v-198q84 -5 151.5 -24t127.5 -53.5t124 -89.5l-78 -78q-74 66 -146.5 101t-178.5 43v-642l64 -10 q105 -19 170.5 -42t109.5 -62q67 -55 102 -133.5t35 -172.5q0 -124 -58 -219.5t-166.5 -150.5t-256.5 -63v-241h-100v239q-151 7 -260 56t-214 151zM264 1161q0 -137 81 -205q90 -78 241 -97v625q-102 -9 -174 -50t-110 -110.5t-38 -162.5zM686 95q110 7 192.5 47.5 t126.5 110t44 165.5q0 145 -87 221q-54 48 -103.5 61t-172.5 30v-635z" />
<glyph unicode="%" horiz-adv-x="1831" d="M152 1057v237q0 86 37 153.5t103.5 105.5t152.5 38q84 0 150 -38t102.5 -105.5t36.5 -153.5v-237q0 -128 -80.5 -210.5t-208.5 -82.5q-130 0 -211.5 82.5t-81.5 210.5zM249 1062q0 -215 196 -215q97 0 144.5 56.5t47.5 158.5v228q0 102 -47 159.5t-145 57.5 q-100 0 -148 -57.5t-48 -159.5v-228zM500 0l734 1575h100l-735 -1575h-99zM1097 281v236q0 131 81 214t211 83q86 0 151.5 -37.5t101.5 -105t36 -154.5v-236q0 -87 -36 -154t-101.5 -104.5t-151.5 -37.5q-129 0 -210.5 83t-81.5 213zM1194 285q0 -217 195 -217 q98 0 145 57.5t47 159.5v228q0 103 -47 160t-145 57q-195 0 -195 -217v-228z" />
<glyph unicode="&#x26;" horiz-adv-x="1650" d="M186 435q0 117 48.5 204t118 144.5t193.5 140.5q-50 60 -88 113t-62 113.5t-24 123.5q0 132 93 223t227 91q88 0 161.5 -42t116.5 -114.5t43 -159.5q0 -162 -181 -284q5 0 -117 -79l450 -546q38 58 57 108.5t27.5 113.5t8.5 169h118q0 -311 -137 -480l225 -274h-153 l-152 186q-206 -199 -484 -199q-140 0 -252.5 56t-174.5 159t-62 233zM306 443q0 -156 102.5 -253t264.5 -97q105 0 206 37.5t214 137.5l-478 577q-115 -79 -169.5 -123t-97 -114.5t-42.5 -164.5zM491 1279q0 -59 32 -118.5t123 -172.5q11 8 35 24.5t36.5 25.5t19.5 13 q77 53 117.5 102t40.5 119q0 91 -57.5 150.5t-145.5 59.5q-84 0 -142.5 -58.5t-58.5 -144.5z" />
<glyph unicode="'" horiz-adv-x="559" d="M211 1230v345h139v-345h-139z" />
<glyph unicode="(" horiz-adv-x="628" d="M215 175v1225q0 124 42 206q22 44 49 75.5t97 101.5l77 -78q-59 -58 -80.5 -82t-38.5 -61q-34 -68 -34 -175v-1199q0 -107 34 -175q11 -23 29.5 -47.5t42.5 -48.5t47 -48l-77 -77q-70 70 -97 102.5t-49 74.5q-42 82 -42 206z" />
<glyph unicode=")" horiz-adv-x="628" d="M144 -126q58 58 80.5 84.5t39.5 58.5q30 65 30 171v1199q0 106 -30 170q-17 36 -48 70.5t-72 73.5l82 82q61 -61 92 -96t54 -81q42 -77 42 -206v-1225q0 -130 -42 -206q-23 -45 -54 -80.5t-92 -96.5z" />
<glyph unicode="*" horiz-adv-x="1032" d="M159 1053l272 150l-272 150l49 84l265 -160l-6 311h99l-7 -311l266 160l49 -84l-272 -150l272 -150l-49 -84l-266 162l7 -312h-99l6 312l-265 -162z" />
<glyph unicode="+" d="M118 531v104h399v397h104v-397h399v-104h-399v-400h-104v400h-399z" />
<glyph unicode="," horiz-adv-x="570" d="M211 150h150v-300l-150 -151v451z" />
<glyph unicode="-" horiz-adv-x="941" d="M181 531v104h580v-104h-580z" />
<glyph unicode="." horiz-adv-x="584" d="M211 0v164h163v-164h-163z" />
<glyph unicode="/" horiz-adv-x="747" d="M0 -164l631 1903h116l-629 -1903h-118z" />
<glyph unicode="0" d="M154 407v760q0 91 31 169t85.5 134.5t130.5 87t167 30.5q92 0 168 -30.5t131 -87t85 -134.5t30 -169v-760q0 -123 -52.5 -217.5t-147.5 -148.5t-214 -54t-214 54t-147.5 148.5t-52.5 217.5zM268 418q0 -146 79.5 -239t220.5 -93q143 0 222 93t79 239v739q0 145 -79 238 t-222 93q-141 0 -220.5 -93t-79.5 -238v-739z" />
<glyph unicode="1" d="M294 1194v135l286 246h112v-1575h-112v1446z" />
<glyph unicode="2" d="M159 0v99l633 830q88 113 88 245q0 95 -36 165.5t-104.5 109.5t-161.5 39q-133 0 -218.5 -78t-85.5 -236h-112q0 181 112 297.5t304 116.5q95 0 172 -30t131 -83.5t83.5 -129.5t29.5 -171q0 -88 -25 -157t-84 -145l-591 -773h700v-99h-835z" />
<glyph unicode="3" d="M93 382h112q12 -151 107.5 -224.5t229.5 -73.5q145 0 239.5 91.5t94.5 244.5q0 165 -82 250.5t-260 85.5h-27v100h27q102 0 172.5 37t104.5 106.5t34 172.5q0 75 -23.5 136t-64.5 101t-95.5 60.5t-121.5 20.5q-136 0 -217.5 -76.5t-96.5 -210.5h-114q18 180 136 284 t292 104q122 0 217 -52t148 -146.5t53 -220.5q0 -264 -224 -358q254 -87 254 -394q0 -136 -57.5 -235t-160.5 -149.5t-228 -50.5q-193 0 -315.5 100.5t-133.5 296.5z" />
<glyph unicode="4" d="M95 259v100l580 1216h119l-579 -1216h504v500h113v-500h210v-100h-210v-259h-113v259h-624z" />
<glyph unicode="5" d="M164 348h112q17 -130 89.5 -197t206.5 -67q64 0 123.5 21.5t93.5 58.5q62 62 79 145t17 206q0 186 -60 303t-234 117q-108 0 -185 -43.5t-100 -121.5h-101v805h757v-100h-656v-557q99 117 298 117q173 0 265 -95q76 -76 102.5 -183t26.5 -242q0 -142 -23.5 -241.5 t-98.5 -176.5q-115 -112 -304 -112q-200 0 -302 106q-93 93 -106 257z" />
<glyph unicode="6" d="M157 429q0 76 20 152.5t68 176.5l405 817h114l-363 -728q77 38 183 38q127 0 219 -58.5t140 -158t48 -223.5q0 -94 -27.5 -177t-81 -147t-131.5 -99t-176 -35q-195 0 -306.5 122.5t-111.5 319.5zM270 435q0 -159 81.5 -254t220.5 -95q91 0 161.5 44t107.5 122t37 183 q0 150 -80.5 250t-225.5 100q-139 0 -220.5 -94.5t-81.5 -255.5z" />
<glyph unicode="7" d="M190 1228v347h825v-100l-557 -1475h-116l559 1475h-598v-247h-113z" />
<glyph unicode="8" d="M120 424q0 132 66.5 232t182.5 163q-107 58 -162 147.5t-55 210.5q0 87 30.5 162t85.5 130.5t132 87t168 31.5q121 0 215.5 -53.5t147.5 -147.5t53 -210q0 -122 -54 -211.5t-160 -146.5q77 -42 132.5 -99.5t85 -132t29.5 -163.5q0 -123 -59 -223.5t-161.5 -157 t-228.5 -56.5q-125 0 -227 56.5t-161.5 157t-59.5 223.5zM232 424q0 -142 97 -240t239 -98q92 0 170 44.5t122.5 123t44.5 170.5q0 74 -25 135t-70.5 108t-106.5 73t-135 26q-93 0 -170 -45t-121.5 -124t-44.5 -173zM266 1177q0 -137 84 -224.5t218 -87.5q90 0 158.5 40 t107 111.5t38.5 160.5t-39 160.5t-107 111t-158 39.5t-158.5 -40t-106 -111.5t-37.5 -159.5z" />
<glyph unicode="9" d="M146 1131q0 94 28 177.5t81 146t131.5 98t175.5 35.5q129 0 223.5 -56.5t144.5 -158.5t50 -227q0 -151 -89 -330l-404 -816h-113l363 728q-78 -38 -186 -38q-127 0 -218.5 58t-139 158.5t-47.5 224.5zM259 1139q0 -97 34.5 -176.5t104 -126.5t164.5 -47q90 0 160.5 43.5 t107.5 122.5t37 184t-37 183.5t-107.5 122t-160.5 43.5q-140 0 -221.5 -95t-81.5 -254z" />
<glyph unicode=":" horiz-adv-x="645" d="M272 0v164h163v-164h-163zM272 690v164h163v-164h-163z" />
<glyph unicode=";" horiz-adv-x="645" d="M272 690v164h163v-164h-163zM276 150h151v-300l-151 -151v451z" />
<glyph unicode="&#x3c;" horiz-adv-x="2271" d="M126 582l894 893h152l-838 -838h1812v-111h-1812l838 -838h-152z" />
<glyph unicode="=" d="M118 361v103h902v-103h-902zM118 699v103h902v-103h-902z" />
<glyph unicode="&#x3e;" horiz-adv-x="2271" d="M126 526v111h1812l-839 838h153l894 -893l-894 -894h-153l839 838h-1812z" />
<glyph unicode="?" horiz-adv-x="1078" d="M177 1199q0 106 50.5 195t140 141.5t204.5 52.5q111 0 201.5 -50.5t143 -139.5t52.5 -199q0 -121 -97 -264l-188 -276q-40 -57 -40 -133v-104h-113v100q0 58 15 103t49 96l186 275q39 57 57 100t18 103q0 82 -37 148t-102 103.5t-145 37.5q-81 0 -146 -39.5t-101 -105.5 t-36 -144h-112zM513 0v148h148v-148h-148z" />
<glyph unicode="@" horiz-adv-x="1541" d="M171 348v773q0 208 121 335q55 57 136 88t176 31h331q191 0 312 -119q62 -62 93.5 -145.5t31.5 -189.5v-1121h-114v131q-34 -49 -79.5 -82t-103 -48.5t-124.5 -15.5q-95 0 -174.5 37.5t-132.5 106.5q-52 70 -73.5 161t-21.5 244q0 142 20 237.5t66 161.5 q49 69 132.5 108.5t181.5 39.5q102 0 177 -36.5t132 -113.5v197q0 97 -20 154.5t-71 108.5q-47 49 -106.5 71t-144.5 22h-292q-84 0 -142.5 -21.5t-107.5 -71.5q-33 -32 -53.5 -68t-29 -81t-8.5 -114v-780q0 -51 5.5 -92.5t22 -76.5t40.5 -59t69 -58l-78 -77 q-51 37 -84.5 71t-52.5 74t-26.5 91t-7.5 127zM661 534q0 -132 21 -227.5t87.5 -159t190.5 -63.5t189.5 63t87 159t21.5 228q0 130 -21.5 226t-87 159t-189.5 63q-178 0 -238.5 -122.5t-60.5 -325.5z" />
<glyph unicode="A" horiz-adv-x="1331" d="M33 0l579 1575h107l579 -1575h-128l-138 382h-734l-136 -382h-129zM336 489h660l-331 927z" />
<glyph unicode="B" horiz-adv-x="1483" d="M243 0v1575h580q133 0 236 -49.5t161.5 -143.5t58.5 -219q0 -124 -66 -219t-181 -134q130 -44 200 -144t70 -237q0 -207 -124 -318t-338 -111h-597zM363 106h464q109 0 189 39t124 111.5t44 172.5t-44 172.5t-124 111.5t-189 39h-464v-646zM363 859h447q153 0 251 76 t98 228q0 104 -46 172.5t-125 101t-178 32.5h-447v-610z" />
<glyph unicode="C" horiz-adv-x="1424" d="M181 787q0 213 8 313.5t38 178t100 148.5q77 76 179 118.5t215 42.5q139 0 251 -55.5t185 -158.5t99 -246h-121q-34 164 -145 259t-269 95q-84 0 -161 -30.5t-138 -90.5q-42 -42 -65 -87.5t-36 -114.5t-16.5 -157.5t-3.5 -214.5q0 -187 7.5 -284.5t33.5 -165.5t80 -122 q60 -59 137.5 -90.5t161.5 -31.5q105 0 191 42.5t146 124t81 187.5h117q-26 -142 -99.5 -246t-186 -159t-249.5 -55q-112 0 -214.5 42t-179.5 119q-70 70 -100 148t-38 178.5t-8 312.5z" />
<glyph unicode="D" horiz-adv-x="1500" d="M243 0v1575h529q82 0 154 -17t132 -48t107 -79q98 -96 126 -236t28 -336v-49v-52q0 -207 -29 -362.5t-125 -251.5q-46 -47 -106.5 -79t-132.5 -48.5t-154 -16.5h-529zM363 106h380q220 0 338 122q75 74 96.5 203.5t21.5 309.5v69v66q0 166 -21.5 281t-96.5 190 q-118 122 -338 122h-380v-1363z" />
<glyph unicode="E" horiz-adv-x="1323" d="M243 0v1575h956v-106h-836v-622h712v-106h-712v-635h836v-106h-956z" />
<glyph unicode="F" horiz-adv-x="1274" d="M243 0v1575h956v-106h-836v-648h712v-106h-712v-715h-120z" />
<glyph unicode="G" horiz-adv-x="1439" d="M181 787q0 213 8 313.5t38 178t100 148.5q77 76 179 118.5t215 42.5q208 0 355 -126t182 -334h-119q-21 105 -81 186.5t-146 124.5t-191 43q-84 0 -161 -30.5t-138 -90.5q-42 -42 -65 -87.5t-36 -114.5t-16.5 -157.5t-3.5 -214.5q0 -187 7.5 -284.5t33.5 -165.5t80 -122 q60 -59 137.5 -90.5t161.5 -31.5q95 0 181 39.5t147 112.5q50 63 72.5 136.5t22.5 175.5v142h-423v106h542v-256q0 -244 -128 -381q-78 -86 -186 -133.5t-228 -47.5q-112 0 -214.5 42t-179.5 119q-70 70 -100 148t-38 178.5t-8 312.5z" />
<glyph unicode="H" horiz-adv-x="1546" d="M243 0v1575h120v-728h821v728h118v-1575h-118v741h-821v-741h-120z" />
<glyph unicode="I" horiz-adv-x="605" d="M243 0v1575h120v-1575h-120z" />
<glyph unicode="J" horiz-adv-x="1101" d="M66 122l82 81q41 -39 72 -60.5t78.5 -35.5t112.5 -14q171 0 260.5 103t89.5 293v1086h119v-1111q0 -141 -57 -249.5t-163.5 -168t-248.5 -59.5q-210 0 -345 135z" />
<glyph unicode="K" horiz-adv-x="1426" d="M243 0v1575h120v-984l798 984h144l-486 -602l568 -973h-142l-506 882l-376 -455v-427h-120z" />
<glyph unicode="L" horiz-adv-x="1264" d="M243 0v1575h120v-1469h836v-106h-956z" />
<glyph unicode="M" horiz-adv-x="1809" d="M243 0v1575h120l549 -1214l534 1214h120v-1575h-120v1298l-477 -1077h-120l-486 1077v-1298h-120z" />
<glyph unicode="N" horiz-adv-x="1634" d="M243 0v1575h120l909 -1364v1364h119v-1575h-119l-909 1369v-1369h-120z" />
<glyph unicode="O" horiz-adv-x="1441" d="M181 787q0 213 8 313.5t38 178t100 148.5q77 76 179 118.5t215 42.5q114 0 215.5 -42.5t178.5 -118.5q70 -71 100 -148.5t37.5 -178t7.5 -313.5q0 -212 -7.5 -312.5t-37.5 -178.5t-100 -148q-77 -77 -179 -119t-215 -42q-112 0 -214.5 42t-179.5 119q-70 70 -100 148 t-38 178.5t-8 312.5zM301 787q0 -187 7.5 -284.5t33.5 -165.5t80 -122q60 -59 137.5 -90.5t161.5 -31.5q86 0 162.5 31.5t136.5 90.5q56 56 81 123t33 164.5t8 284.5t-8 285.5t-33.5 166t-80.5 122.5q-61 60 -137 90.5t-162 30.5q-84 0 -161 -30.5t-138 -90.5 q-42 -42 -65 -87.5t-36 -114.5t-16.5 -157.5t-3.5 -214.5z" />
<glyph unicode="P" horiz-adv-x="1395" d="M243 0v1575h578q105 0 190.5 -30t149.5 -88t99.5 -144.5t35.5 -191.5q0 -211 -133.5 -332.5t-341.5 -121.5h-458v-667h-120zM363 774h445q168 0 268.5 87t100.5 260t-100 260.5t-269 87.5h-445v-695z" />
<glyph unicode="Q" horiz-adv-x="1439" d="M181 787q0 213 8 313.5t38 178t100 148.5q77 76 179 118.5t215 42.5q114 0 215.5 -42.5t178.5 -118.5q70 -71 100 -148.5t37.5 -178t7.5 -313.5q0 -196 -5 -290.5t-29 -171t-78 -139.5l186 -186l-80 -80l-186 186q-150 -119 -347 -119q-112 0 -214.5 42t-179.5 119 q-70 70 -100 148t-38 178.5t-8 312.5zM301 787q0 -187 7.5 -284.5t33.5 -165.5t80 -122q60 -59 137.5 -90.5t161.5 -31.5q151 0 267 93l-220 221l79 80l219 -219q50 73 63 176.5t13 342.5q0 187 -8 285.5t-33.5 166t-80.5 122.5q-61 60 -137 90.5t-162 30.5 q-84 0 -161 -30.5t-138 -90.5q-42 -42 -65 -87.5t-36 -114.5t-16.5 -157.5t-3.5 -214.5z" />
<glyph unicode="R" horiz-adv-x="1453" d="M243 0v1575h599q131 0 233 -49.5t160.5 -145t58.5 -228.5q0 -172 -96.5 -283.5t-266.5 -140.5l380 -728h-139l-376 726h-433v-726h-120zM363 832h464q77 0 140.5 20t109 58.5t71.5 99t26 140.5q0 157 -94.5 238t-252.5 81h-464v-637z" />
<glyph unicode="S" horiz-adv-x="1298" d="M112 194l85 85q71 -72 137 -112.5t141.5 -57t168.5 -16.5q124 0 214.5 38.5t140.5 112.5t50 174q0 145 -87 221q-40 35 -88.5 53t-139.5 32l-183 28q-179 27 -281 115q-124 104 -124 290q0 99 35 179.5t97.5 136t154.5 85.5t202 30q144 0 247.5 -40.5t206.5 -129.5 l-78 -78q-83 75 -168 110.5t-214 35.5q-171 0 -268 -87.5t-97 -237.5q0 -137 81 -205q44 -36 108 -62.5t127 -34.5l170 -27q109 -17 170.5 -39.5t109.5 -64.5q67 -55 102 -133.5t35 -172.5q0 -97 -36 -178.5t-104.5 -138t-168.5 -87.5t-221 -31q-112 0 -205 21.5t-170.5 68 t-149.5 117.5z" />
<glyph unicode="T" horiz-adv-x="1192" d="M66 1469v106h1059v-106h-471v-1469h-118v1469h-470z" />
<glyph unicode="U" horiz-adv-x="1521" d="M221 511v1064h119v-1049q0 -130 52.5 -227.5t148.5 -151.5t220 -54q122 0 219 54t149.5 151.5t52.5 227.5v1049h118v-1064q0 -151 -68.5 -271t-191 -186.5t-279.5 -66.5q-155 0 -278.5 66.5t-192.5 186.5t-69 271z" />
<glyph unicode="V" horiz-adv-x="1181" d="M22 1575h126l443 -1364l441 1364h127l-517 -1575h-102z" />
<glyph unicode="W" horiz-adv-x="1861" d="M44 1575h127l331 -1370l367 1370h125l367 -1370l331 1370h126l-393 -1575h-123l-371 1372l-372 -1372h-121z" />
<glyph unicode="X" horiz-adv-x="1177" d="M40 0l482 808l-451 767h140l375 -661l378 661h138l-452 -767l487 -808h-139l-412 701l-411 -701h-135z" />
<glyph unicode="Y" horiz-adv-x="1092" d="M22 1575h128l401 -796l391 796h128l-464 -923v-652h-119v652z" />
<glyph unicode="Z" horiz-adv-x="1236" d="M139 0v126l830 1343h-796v106h924v-106l-836 -1363h836v-106h-958z" />
<glyph unicode="[" horiz-adv-x="641" d="M215 -164v1903h327v-100h-215v-1703h215v-100h-327z" />
<glyph unicode="\" horiz-adv-x="747" d="M0 1739h118l629 -1903h-116z" />
<glyph unicode="]" horiz-adv-x="641" d="M99 -71h222v1717h-222v93h328v-1903h-328v93z" />
<glyph unicode="^" d="M168 933l349 655h102l350 -655h-113l-288 536l-287 -536h-113z" />
<glyph unicode="_" d="M0 -270h1137v-84h-1137v84z" />
<glyph unicode="`" horiz-adv-x="1105" d="M294 1630h149l214 -325h-129z" />
<glyph unicode="a" horiz-adv-x="1158" d="M124 292q0 146 99 226.5t273 80.5h344v120q0 132 -70.5 196.5t-229.5 64.5q-112 0 -178 -31t-117 -104l-81 71q46 64 98.5 98.5t121.5 49.5t156 15q414 0 414 -349v-730h-114v106q-67 -67 -139 -93t-186 -26q-77 0 -136 9.5t-102 31.5t-76 56q-77 80 -77 208zM237 294 q0 -106 67.5 -157t210.5 -51q88 0 151 16t115 66q59 56 59 204v137h-331q-272 0 -272 -215z" />
<glyph unicode="b" horiz-adv-x="1194" d="M215 0v1575h112v-646q63 85 140 117.5t177 32.5q83 0 150 -24.5t111 -68.5q137 -137 137 -452q0 -317 -137 -454q-95 -93 -261 -93q-100 0 -176 32.5t-141 117.5v-137h-112zM327 534q0 -204 61.5 -326t240.5 -122q177 0 238.5 122t61.5 326q0 201 -61.5 323.5 t-238.5 122.5q-179 0 -240.5 -122.5t-61.5 -323.5z" />
<glyph unicode="c" horiz-adv-x="1090" d="M152 534q0 169 57 291t162.5 188t249.5 66q114 0 191.5 -35t160.5 -128l-78 -71q-44 50 -86 80t-86 42.5t-102 12.5q-185 0 -283 -142q-39 -56 -55.5 -128t-16.5 -176q0 -105 16 -176t56 -130q98 -142 283 -142q84 0 145.5 30t128.5 105l78 -71q-85 -94 -163 -128.5 t-189 -34.5q-107 0 -193 37.5t-148.5 109.5t-95 174.5t-32.5 225.5z" />
<glyph unicode="d" horiz-adv-x="1194" d="M152 534q0 315 137 452q44 43 111.5 68t150.5 25q99 0 176 -32t140 -118v646h113v-1575h-113v137q-45 -59 -94 -92t-105 -45.5t-117 -12.5q-169 0 -262 93q-137 137 -137 454zM266 534q0 -204 61.5 -326t238.5 -122q178 0 239.5 122t61.5 326q0 201 -61.5 323.5 t-239.5 122.5q-177 0 -238.5 -122.5t-61.5 -323.5z" />
<glyph unicode="e" horiz-adv-x="1156" d="M152 534q0 129 29.5 230t84 170t135.5 107t179 38q100 0 178 -34.5t134 -102t85.5 -163.5t29.5 -220v-50h-741q0 -203 89 -311.5t257 -108.5q93 0 159 29t136 99l84 -67q-85 -85 -172 -124t-213 -39q-147 0 -248 62t-153.5 184t-52.5 301zM266 599h627q-3 79 -9.5 114 t-27.5 87q-33 82 -109.5 131t-166.5 49q-92 0 -166.5 -48.5t-110.5 -131.5q-20 -52 -27 -90.5t-10 -110.5z" />
<glyph unicode="f" horiz-adv-x="672" d="M102 982v84h145v230q0 82 30 145t88.5 98.5t138.5 35.5h98v-100h-78q-163 0 -163 -177v-232h241v-84h-241v-982h-114v982h-145z" />
<glyph unicode="g" horiz-adv-x="1194" d="M152 534q0 315 137 452q44 43 111.5 68t150.5 25q99 0 176 -32t140 -118v137h113v-1125q0 -134 -52 -239.5t-151 -164.5t-233 -59q-113 0 -186.5 31t-165.5 111l76 74q72 -63 128.5 -89.5t147.5 -26.5q160 0 241.5 101.5t81.5 267.5v190q-45 -59 -94 -92t-105 -45.5 t-117 -12.5q-169 0 -262 93q-137 137 -137 454zM266 534q0 -204 61.5 -326t238.5 -122q178 0 239.5 122t61.5 326q0 201 -61.5 323.5t-239.5 122.5q-177 0 -238.5 -122.5t-61.5 -323.5z" />
<glyph unicode="h" horiz-adv-x="1236" d="M215 0v1575h112v-635q120 139 315 139q118 0 208 -48t137.5 -137.5t47.5 -212.5v-681h-113v661q0 154 -75.5 236.5t-217.5 82.5q-95 0 -162.5 -37.5t-103.5 -109.5t-36 -172v-661h-112z" />
<glyph unicode="i" horiz-adv-x="542" d="M201 1435v140h139v-140h-139zM215 0v1066h112v-1066h-112z" />
<glyph unicode="j" horiz-adv-x="542" d="M-27 -409h78q92 0 128 43t36 136v1296h112v-1298q0 -130 -65 -203.5t-191 -73.5h-98v100zM201 1435v140h139v-140h-139z" />
<glyph unicode="k" horiz-adv-x="1165" d="M215 0v1575h112v-1111l529 602h144l-352 -399l429 -667h-140l-367 586l-243 -280v-306h-112z" />
<glyph unicode="l" horiz-adv-x="635" d="M211 276v1299h112v-1296q0 -93 36.5 -136.5t127.5 -43.5h77v-99h-97q-125 0 -190.5 74t-65.5 202z" />
<glyph unicode="m" horiz-adv-x="1941" d="M215 0v1066h112v-126q120 139 317 139q79 0 144.5 -22.5t115 -65t82.5 -106.5q123 194 363 194q88 0 159.5 -26t121.5 -76q111 -105 111 -296v-681h-111v661q0 154 -75.5 236.5t-218.5 82.5q-138 0 -219.5 -80.5t-81.5 -218.5v-681h-113v661q0 154 -75.5 236.5 t-217.5 82.5q-95 0 -162.5 -37.5t-103.5 -109.5t-36 -172v-661h-112z" />
<glyph unicode="n" horiz-adv-x="1236" d="M215 0v1066h112v-126q120 139 315 139q179 0 282 -102q111 -104 111 -296v-681h-113v661q0 154 -75.5 236.5t-217.5 82.5q-95 0 -162.5 -37.5t-103.5 -109.5t-36 -172v-661h-112z" />
<glyph unicode="o" horiz-adv-x="1163" d="M152 534q0 133 28 242.5t105 185.5q117 117 297 117q179 0 296 -117q53 -53 82 -122t40 -145t11 -161q0 -86 -11 -162.5t-40 -145.5t-82 -122q-119 -117 -296 -117q-178 0 -297 117q-53 53 -82 121.5t-40 144t-11 164.5zM266 534q0 -117 17.5 -207t77.5 -150 q90 -91 221 -91q130 0 220 91q60 60 77.5 146.5t17.5 210.5q0 123 -17.5 209t-77.5 146q-88 91 -220 91q-133 0 -221 -91q-60 -60 -77.5 -149t-17.5 -206z" />
<glyph unicode="p" horiz-adv-x="1194" d="M215 -509v1575h112v-137q63 85 140 117.5t177 32.5q83 0 150 -24.5t111 -68.5q137 -137 137 -452q0 -317 -137 -454q-95 -93 -261 -93q-100 0 -176 32.5t-141 117.5v-646h-112zM327 534q0 -204 61.5 -326t240.5 -122q177 0 238.5 122t61.5 326q0 201 -61.5 323.5 t-238.5 122.5q-179 0 -240.5 -122.5t-61.5 -323.5z" />
<glyph unicode="q" horiz-adv-x="1194" d="M152 534q0 315 137 452q44 43 111.5 68t150.5 25q99 0 176 -32t140 -118v137h113v-1575h-113v646q-45 -59 -94 -92t-105 -45.5t-117 -12.5q-169 0 -262 93q-137 137 -137 454zM266 534q0 -204 61.5 -326t238.5 -122q178 0 239.5 122t61.5 326q0 201 -61.5 323.5 t-239.5 122.5q-177 0 -238.5 -122.5t-61.5 -323.5z" />
<glyph unicode="r" horiz-adv-x="905" d="M215 0v1066h112v-142q47 74 132 114.5t180 40.5q79 0 140 -22.5t116 -79.5l-81 -82q-49 50 -91.5 67.5t-110.5 17.5q-64 0 -119 -25.5t-92 -71t-55.5 -102.5t-18.5 -124v-657h-112z" />
<glyph unicode="s" horiz-adv-x="1092" d="M110 139l78 78q124 -131 350 -131q155 0 238 54.5t83 162.5q0 83 -50 126t-155 53l-177 16q-320 26 -320 279q0 90 47 158.5t133 106t203 37.5q112 0 208.5 -29.5t165.5 -82.5l-76 -76q-123 91 -298 91q-132 0 -202 -54t-70 -151q0 -85 52.5 -127.5t164.5 -52.5l172 -15 q149 -13 230.5 -73.5t81.5 -205.5q0 -96 -52.5 -167.5t-149 -110t-225.5 -38.5q-272 0 -432 152z" />
<glyph unicode="t" horiz-adv-x="719" d="M95 982v84h146v341h113v-341h241v-84h-241v-706q0 -177 163 -177h78v-99h-97q-81 0 -139.5 35.5t-88 98.5t-29.5 145v703h-146z" />
<glyph unicode="u" horiz-adv-x="1236" d="M201 384v682h113v-661q0 -154 75.5 -236.5t218.5 -82.5q95 0 162.5 37.5t103 109.5t35.5 172v661h113v-1066h-113v126q-120 -139 -314 -139q-179 0 -283 102q-111 105 -111 295z" />
<glyph unicode="v" horiz-adv-x="951" d="M31 1066h123l321 -933l321 933h124l-389 -1066h-111z" />
<glyph unicode="w" horiz-adv-x="1574" d="M31 1066h123l273 -933l305 933h110l306 -933l272 933h124l-341 -1066h-114l-302 889l-300 -889h-115z" />
<glyph unicode="x" horiz-adv-x="1017" d="M89 0l360 544l-345 522h137l270 -429l266 429h137l-346 -522l361 -544h-137l-281 449l-285 -449h-137z" />
<glyph unicode="y" horiz-adv-x="951" d="M31 1066h123l321 -933l321 933h124l-496 -1355q-28 -86 -72 -125q-72 -68 -202 -68h-53v100h42q61 0 95.5 14t57 46.5t42.5 84.5l86 237z" />
<glyph unicode="z" horiz-adv-x="1000" d="M120 0v106l641 861h-607v99h726v-106l-643 -861h643v-99h-760z" />
<glyph unicode="{" horiz-adv-x="698" d="M110 739v97h40q53 0 95 42q40 40 40 133v458q0 85 13 131.5t44 77.5q35 35 85 48t130 13h32v-100h-30q-57 0 -84 -5.5t-46 -23.5q-30 -34 -30 -143v-458q0 -85 -32 -135t-103 -87q69 -33 102 -85t33 -136v-458q0 -109 30 -144q17 -16 45 -22t85 -6h30v-100h-32 q-80 0 -130 14t-85 46q-31 33 -44 79t-13 131v458q0 94 -40 133q-40 42 -95 42h-40z" />
<glyph unicode="|" horiz-adv-x="700" d="M294 -164v1903h113v-1903h-113z" />
<glyph unicode="}" horiz-adv-x="698" d="M110 -64h29q58 0 87 6.5t44 21.5q31 36 31 144v458q0 83 32 135t102 86q-72 37 -103 87t-31 135v458q0 108 -31 143q-17 18 -45 23.5t-86 5.5h-29v100h31q83 0 133 -13.5t82 -47.5q33 -30 45.5 -74t12.5 -135v-458q0 -93 40 -133q42 -42 95 -42h40v-97h-40q-55 0 -95 -42 q-40 -39 -40 -133v-458q0 -91 -12.5 -134t-45 -75.5t-82.5 -46.5t-133 -14h-31v100z" />
<glyph unicode="~" d="M118 564q83 85 135 111t121 26q25 0 53.5 -6t48.5 -13t57 -22t66 -27q26 -11 58 -24.5t56.5 -20t54.5 -6.5q48 0 84 18t99 81l69 -69q-87 -86 -137.5 -111.5t-118.5 -25.5q-33 0 -69.5 10t-81.5 28t-75 31q-74 31 -103 41t-66 10q-49 0 -84.5 -18t-98.5 -81z" />
<glyph unicode="&#xa1;" horiz-adv-x="672" d="M230 918v148h148v-148h-148zM243 -509l6 1151h110l6 -1151h-122z" />
<glyph unicode="&#xa2;" horiz-adv-x="1101" d="M152 810q0 153 48 270.5t139 187t212 83.5v224h95v-220q101 -3 173.5 -38.5t153.5 -124.5l-78 -71q-60 70 -116 101t-133 34v-893q77 3 133 34t116 101l78 -71q-52 -58 -102 -93.5t-104 -51.5t-121 -18v-264h-95v268q-121 14 -212 83.5t-139 187t-48 271.5zM266 810 q0 -105 16 -175.5t56 -130.5q78 -112 213 -135v881q-135 -23 -213 -135q-39 -57 -55.5 -128.5t-16.5 -176.5z" />
<glyph unicode="&#xa3;" horiz-adv-x="1188" d="M110 756v84h142v270q0 106 33 194.5t94.5 152.5t149 97.5t192.5 33.5q211 0 345 -134l-82 -82q-51 51 -110 80.5t-153 29.5q-168 0 -258.5 -103.5t-90.5 -292.5v-246h349v-84h-349v-650h694v-106h-814v756h-142z" />
<glyph unicode="&#xa4;" horiz-adv-x="1453" d="M188 120l164 163q-107 131 -107 303q0 87 28 166t79 139l-164 162l71 70l163 -161q130 104 304 104q83 0 163 -27t139 -77l166 161l71 -70l-163 -162q103 -127 103 -305q0 -173 -103 -303l163 -163l-71 -71l-166 164q-129 -107 -302 -107t-304 107l-163 -164zM352 586 q0 -101 49.5 -187.5t136 -136t188.5 -49.5q100 0 187 50t136.5 135.5t49.5 187.5t-50 188t-136 136t-187 50q-103 0 -188 -49.5t-135.5 -136.5t-50.5 -188z" />
<glyph unicode="&#xa5;" horiz-adv-x="1090" d="M22 1575h126l401 -798l395 798h124l-361 -721h240v-84h-282l-59 -118v-116h341v-85h-341v-451h-119v451h-343v85h343v116l-60 118h-283v84h240z" />
<glyph unicode="&#xa6;" horiz-adv-x="725" d="M294 -164v774h113v-774h-113zM294 964v775h113v-775h-113z" />
<glyph unicode="&#xa7;" horiz-adv-x="1251" d="M215 546q0 91 32.5 165.5t89 128t121.5 82.5q-109 49 -164 123t-55 189q0 84 29.5 147.5t83 110.5t123 71.5t151.5 24.5q105 0 193 -39.5t142 -115t59 -179.5h-117q-23 230 -277 230q-125 0 -197.5 -64.5t-72.5 -185.5q0 -183 201 -236l184 -51q92 -26 159 -84.5 t102.5 -139t35.5 -177.5q0 -132 -68.5 -229.5t-175.5 -145.5q51 -17 94.5 -49t71.5 -71t45 -91t17 -112q0 -105 -50.5 -190.5t-141 -132.5t-204.5 -47q-167 0 -281.5 91.5t-125.5 251.5h119q13 -118 86.5 -177.5t201.5 -59.5q86 0 147.5 30.5t95.5 89.5t34 144 q0 87 -57.5 154t-151.5 93l-183 51q-139 40 -217.5 148.5t-78.5 251.5zM334 546q0 -139 77 -223q85 -91 215 -91t214 91q78 84 78 223q0 73 -16.5 126.5t-61.5 97.5q-90 91 -214 91q-130 0 -215 -91q-42 -46 -59.5 -97.5t-17.5 -126.5z" />
<glyph unicode="&#xa8;" horiz-adv-x="1105" d="M259 1327v170h128v-170h-128zM719 1327v170h128v-170h-128z" />
<glyph unicode="&#xa9;" horiz-adv-x="1977" d="M188 787q0 161 62.5 309t172 257.5t257.5 172t308 62.5q161 0 309 -62.5t257.5 -172t172.5 -257.5t63 -309t-63 -309t-172.5 -257.5t-257.5 -171.5t-309 -62q-160 0 -308 62t-257.5 171.5t-172 257.5t-62.5 309zM294 787q0 -187 94 -349t254 -258t346 -96q187 0 347.5 96 t254.5 258t94 349q0 142 -54.5 270t-150.5 225t-223.5 152.5t-267.5 55.5q-138 0 -266 -55.5t-224 -153t-150 -225t-54 -269.5zM606 787q0 129 42.5 232.5t130.5 164.5t219 61q91 0 154 -27t135 -90l-67 -66q-59 54 -107 73.5t-115 19.5q-156 0 -224.5 -102.5t-68.5 -265.5 q0 -162 68.5 -263.5t224.5 -101.5q45 0 82 9t71.5 30t68.5 52l67 -66q-47 -43 -89 -67t-91 -36t-109 -12q-130 0 -218.5 60.5t-131 163.5t-42.5 231z" />
<glyph unicode="&#xaa;" horiz-adv-x="988" d="M131 956q0 114 77.5 179.5t215.5 65.5h268v93q0 101 -54.5 151t-177.5 50q-87 0 -138 -23t-92 -83l-71 59q53 74 122.5 103.5t178.5 29.5q164 0 245.5 -71t81.5 -208v-578h-95v78q-35 -33 -69.5 -52.5t-78 -28.5t-103.5 -9q-92 0 -149.5 17.5t-99.5 59.5q-61 62 -61 167z M226 958q0 -81 51 -120.5t164 -39.5q67 0 118.5 13t88.5 50q44 40 44 159v103h-257q-209 0 -209 -165z" />
<glyph unicode="&#xab;" horiz-adv-x="1165" d="M93 586l433 434v-146l-287 -288l287 -288v-146zM551 586l433 434v-146l-287 -288l287 -288v-146z" />
<glyph unicode="&#xac;" d="M118 531v104h902v-398h-104v294h-798z" />
<glyph unicode="&#xad;" d="M118 531v104h902v-104h-902z" />
<glyph unicode="&#xae;" horiz-adv-x="1977" d="M188 787q0 161 62.5 309t172 257.5t257.5 172t308 62.5q161 0 309 -62.5t257.5 -172t172.5 -257.5t63 -309t-63 -309t-172.5 -257.5t-257.5 -171.5t-309 -62q-160 0 -308 62t-257.5 171.5t-172 257.5t-62.5 309zM292 787q0 -188 94 -350t254.5 -258.5t347.5 -96.5 q188 0 349 96.5t255 258.5t94 350t-94 350t-255 259t-349 97q-139 0 -267 -56t-224.5 -154t-150.5 -225.5t-54 -270.5zM737 345v887h283q74 0 135.5 -34t100 -94t38.5 -133q0 -95 -54.5 -158t-146.5 -89l224 -379h-116l-219 370h-146v-370h-99zM836 802h173q52 0 94.5 22 t66.5 60t24 87q0 47 -24 86t-66 62t-95 23h-173v-340z" />
<glyph unicode="&#xaf;" horiz-adv-x="1105" d="M226 1345v101h654v-101h-654z" />
<glyph unicode="&#xb0;" horiz-adv-x="1013" d="M159 1243q0 145 102.5 246.5t245.5 101.5q93 0 173.5 -46.5t127 -127t46.5 -174.5q0 -142 -101.5 -245t-245.5 -103q-143 0 -245.5 103t-102.5 245zM259 1243q0 -107 70.5 -181t177.5 -74q69 0 125.5 33.5t89 92t32.5 129.5t-33 129.5t-89.5 91.5t-127.5 33 q-69 0 -124.5 -32.5t-88 -91.5t-32.5 -130z" />
<glyph unicode="&#xb1;" d="M118 0v104h902v-104h-902zM118 597v104h399v401h104v-401h399v-104h-399v-403h-104v403h-399z" />
<glyph unicode="&#xb2;" horiz-adv-x="743" d="M110 631v88l372 471q52 68 52 137q0 77 -43 122.5t-119 45.5q-72 0 -118 -41t-46 -127h-98q0 76 32.5 133.5t92.5 90t137 32.5q116 0 188.5 -69.5t72.5 -186.5q0 -57 -17.5 -99t-58.5 -93l-329 -416h405v-88h-523z" />
<glyph unicode="&#xb3;" horiz-adv-x="778" d="M110 872h101q4 -83 55.5 -124t124.5 -41q78 0 128.5 49.5t50.5 132.5q0 179 -186 179h-17v87h17q169 0 169 170q0 55 -21.5 93t-59.5 57.5t-83 19.5q-74 0 -117.5 -41t-50.5 -114h-97q8 113 82 178t183 65q79 0 137.5 -31.5t91 -89.5t32.5 -135q0 -153 -126 -210 q143 -54 143 -228q0 -85 -36 -146.5t-99 -92.5t-141 -31q-118 0 -196 64.5t-85 188.5z" />
<glyph unicode="&#xb4;" horiz-adv-x="1105" d="M449 1305l214 325h149l-234 -325h-129z" />
<glyph unicode="&#xb5;" horiz-adv-x="1230" d="M194 -509v1575h114v-661q0 -154 75.5 -236.5t218.5 -82.5q95 0 162.5 37.5t103 109.5t35.5 172v661h112v-1066h-112v126q-120 -139 -314 -139q-176 0 -281 99v-595h-114z" />
<glyph unicode="&#xb6;" horiz-adv-x="1280" d="M99 1155q0 79 31 156t92 137t148 93.5t196 33.5h472v-2084h-114v1978h-272v-1978h-112v1243q-104 0 -184 34t-138.5 96t-88.5 137t-30 154z" />
<glyph unicode="&#xb8;" horiz-adv-x="1105" d="M401 -487l158 333h122l-141 -333h-139z" />
<glyph unicode="&#xb9;" horiz-adv-x="550" d="M99 1309v113l177 153h98v-944h-98v836z" />
<glyph unicode="&#xba;" horiz-adv-x="1000" d="M159 1148q0 66 8.5 127t33 116.5t65.5 96.5q90 93 234 93t234 -93q63 -62 84.5 -146t21.5 -194t-21.5 -194t-84.5 -146q-90 -93 -234 -93t-234 93q-42 42 -66 96.5t-32.5 116t-8.5 127.5zM255 1148q0 -94 13.5 -162t58.5 -114q72 -72 173 -72q102 0 173 72q44 44 58 113 t14 163t-13.5 162.5t-58.5 114.5q-70 70 -173 70t-173 -70q-45 -47 -58.5 -115t-13.5 -162z" />
<glyph unicode="&#xbb;" horiz-adv-x="1165" d="M181 152v146l288 288l-288 288v146l434 -434zM639 152v146l288 288l-288 288v146l433 -434z" />
<glyph unicode="&#xbc;" horiz-adv-x="1671" d="M99 1309v113l177 153h98v-944h-98v836zM372 0l734 1575h99l-734 -1575h-99zM996 148v89l340 707h104l-338 -707h270v265h97v-265h114v-89h-114v-148h-97v148h-376z" />
<glyph unicode="&#xbd;" horiz-adv-x="1690" d="M99 1309v113l177 153h98v-944h-98v836zM338 0l734 1575h100l-734 -1575h-100zM1057 0v89l372 470q51 66 51 138q0 76 -43 122t-118 46q-72 0 -118 -40.5t-46 -127.5h-98q0 113 72 185t190 72q116 0 188 -69.5t72 -187.5q0 -58 -17 -99t-58 -94l-330 -415h405v-89h-522z " />
<glyph unicode="&#xbe;" horiz-adv-x="1783" d="M110 872h101q4 -83 55.5 -124t124.5 -41q78 0 128.5 49.5t50.5 132.5q0 179 -186 179h-17v87h17q169 0 169 170q0 55 -21.5 93t-59.5 57.5t-83 19.5q-74 0 -117.5 -41t-50.5 -114h-97q8 113 82 178t183 65q79 0 137.5 -31.5t91 -89.5t32.5 -135q0 -153 -126 -210 q143 -54 143 -228q0 -85 -36 -146.5t-99 -92.5t-141 -31q-118 0 -196 64.5t-85 188.5zM504 0l735 1575h99l-734 -1575h-100zM1106 148v89l340 707h105l-339 -707h270v265h97v-265h116v-89h-116v-148h-97v148h-376z" />
<glyph unicode="&#xbf;" horiz-adv-x="1078" d="M110 -133q0 73 24.5 132t73.5 132l188 276q39 58 39 133v104h114v-100q0 -59 -15 -103t-49 -96l-187 -274q-38 -58 -56 -102t-18 -102q0 -122 81 -205.5t202 -83.5q127 0 204.5 84.5t77.5 204.5h114q0 -104 -51 -194t-140.5 -142.5t-204.5 -52.5q-111 0 -201.5 50.5 t-143 139.5t-52.5 199zM418 918v148h148v-148h-148z" />
<glyph unicode="&#xc0;" horiz-adv-x="1331" d="M33 0l579 1575h107l579 -1575h-128l-138 382h-734l-136 -382h-129zM336 489h660l-331 927zM406 2050h149l214 -325h-129z" />
<glyph unicode="&#xc1;" horiz-adv-x="1331" d="M33 0l579 1575h107l579 -1575h-128l-138 382h-734l-136 -382h-129zM336 489h660l-331 927zM561 1725l214 325h149l-234 -325h-129z" />
<glyph unicode="&#xc2;" horiz-adv-x="1331" d="M33 0l579 1575h107l579 -1575h-128l-138 382h-734l-136 -382h-129zM333 1725l273 325h118l273 -325h-127l-205 242l-205 -242h-127zM336 489h660l-331 927z" />
<glyph unicode="&#xc3;" horiz-adv-x="1331" d="M33 0l579 1575h107l579 -1575h-128l-138 382h-734l-136 -382h-129zM325 1849q70 70 111.5 88t84.5 18q48 0 80 -12.5t73 -40.5q45 -27 68.5 -37t55.5 -10q57 0 130 74l66 -65q-42 -42 -80 -67.5t-63 -32t-53 -6.5q-40 0 -72 13t-80 40q-79 46 -125 46q-31 0 -58 -13.5 t-72 -58.5zM336 489h660l-331 927z" />
<glyph unicode="&#xc4;" horiz-adv-x="1331" d="M33 0l579 1575h107l579 -1575h-128l-138 382h-734l-136 -382h-129zM336 489h660l-331 927zM371 1747v170h128v-170h-128zM831 1747v170h128v-170h-128z" />
<glyph unicode="&#xc5;" horiz-adv-x="1331" d="M31 0l536 1458h99l536 -1458h-119l-127 354h-680l-126 -354h-119zM311 453h611l-306 858zM414 1904q0 70 34 127.5t90.5 91.5t126.5 34t127 -34t91 -91.5t34 -127.5t-34 -128t-92 -92t-126 -34t-125.5 34t-91.5 92t-34 128zM503 1904q0 -66 48.5 -113.5t113.5 -47.5 q45 0 81.5 21.5t58.5 58.5t22 81q0 66 -47 113t-115 47q-66 0 -114 -47t-48 -113z" />
<glyph unicode="&#xc6;" horiz-adv-x="1992" d="M22 0l834 1575h1013v-106h-837v-629h713v-106h-713v-628h837v-106h-953v382h-564l-200 -382h-130zM403 489h513v980z" />
<glyph unicode="&#xc7;" horiz-adv-x="1424" d="M181 787q0 213 8 313.5t38 178t100 148.5q77 76 179 118.5t215 42.5q139 0 251 -55.5t185 -158.5t99 -246h-121q-34 164 -145 259t-269 95q-84 0 -161 -30.5t-138 -90.5q-42 -42 -65 -87.5t-36 -114.5t-16.5 -157.5t-3.5 -214.5q0 -187 7.5 -284.5t33.5 -165.5t80 -122 q60 -59 137.5 -90.5t161.5 -31.5q105 0 191 42.5t146 124t81 187.5h117q-26 -142 -99.5 -246t-186 -159t-249.5 -55q-112 0 -214.5 42t-179.5 119q-70 70 -100 148t-38 178.5t-8 312.5zM530 -487l158 333h122l-141 -333h-139z" />
<glyph unicode="&#xc8;" horiz-adv-x="1323" d="M243 0v1575h956v-106h-836v-622h712v-106h-712v-635h836v-106h-956zM435 2050h149l214 -325h-129z" />
<glyph unicode="&#xc9;" horiz-adv-x="1323" d="M243 0v1575h956v-106h-836v-622h712v-106h-712v-635h836v-106h-956zM590 1725l214 325h149l-234 -325h-129z" />
<glyph unicode="&#xca;" horiz-adv-x="1323" d="M243 0v1575h956v-106h-836v-622h712v-106h-712v-635h836v-106h-956zM362 1725l273 325h118l273 -325h-127l-205 242l-205 -242h-127z" />
<glyph unicode="&#xcb;" horiz-adv-x="1323" d="M243 0v1575h956v-106h-836v-622h712v-106h-712v-635h836v-106h-956zM400 1747v170h128v-170h-128zM860 1747v170h128v-170h-128z" />
<glyph unicode="&#xcc;" horiz-adv-x="605" d="M64 2050h149l214 -325h-129zM243 0v1575h120v-1575h-120z" />
<glyph unicode="&#xcd;" horiz-adv-x="605" d="M190 1725l214 325h149l-234 -325h-129zM243 0v1575h120v-1575h-120z" />
<glyph unicode="&#xce;" horiz-adv-x="605" d="M-34 1725l273 325h118l273 -325h-127l-205 242l-205 -242h-127zM243 0v1575h120v-1575h-120z" />
<glyph unicode="&#xcf;" horiz-adv-x="605" d="M12 1747v170h128v-170h-128zM243 0v1575h120v-1575h-120zM472 1747v170h128v-170h-128z" />
<glyph unicode="&#xd0;" horiz-adv-x="1523" d="M89 747v93h179v735h530q155 0 271.5 -65.5t188.5 -188.5q39 -67 56 -119t22.5 -139t5.5 -276q0 -191 -7.5 -287.5t-24 -144.5t-52.5 -106q-72 -112 -192.5 -180.5t-282.5 -68.5h-515v747h-179zM387 104h381q258 0 380 179q52 77 64 162t12 332q0 244 -14 341t-75 178 q-69 94 -157 134.5t-210 40.5h-381v-631h394v-93h-394v-643z" />
<glyph unicode="&#xd1;" horiz-adv-x="1634" d="M243 0v1575h120l909 -1364v1364h119v-1575h-119l-909 1369v-1369h-120zM479 1849q70 70 111.5 88t84.5 18q48 0 80 -12.5t73 -40.5q45 -27 68.5 -37t55.5 -10q57 0 130 74l66 -65q-42 -42 -80 -67.5t-63 -32t-53 -6.5q-40 0 -72 13t-80 40q-79 46 -125 46 q-31 0 -58 -13.5t-72 -58.5z" />
<glyph unicode="&#xd2;" horiz-adv-x="1441" d="M181 787q0 213 8 313.5t38 178t100 148.5q77 76 179 118.5t215 42.5q114 0 215.5 -42.5t178.5 -118.5q70 -71 100 -148.5t37.5 -178t7.5 -313.5q0 -212 -7.5 -312.5t-37.5 -178.5t-100 -148q-77 -77 -179 -119t-215 -42q-112 0 -214.5 42t-179.5 119q-70 70 -100 148 t-38 178.5t-8 312.5zM301 787q0 -187 7.5 -284.5t33.5 -165.5t80 -122q60 -59 137.5 -90.5t161.5 -31.5q86 0 162.5 31.5t136.5 90.5q56 56 81 123t33 164.5t8 284.5t-8 285.5t-33.5 166t-80.5 122.5q-61 60 -137 90.5t-162 30.5q-84 0 -161 -30.5t-138 -90.5 q-42 -42 -65 -87.5t-36 -114.5t-16.5 -157.5t-3.5 -214.5zM462 2050h149l214 -325h-129z" />
<glyph unicode="&#xd3;" horiz-adv-x="1441" d="M181 787q0 213 8 313.5t38 178t100 148.5q77 76 179 118.5t215 42.5q114 0 215.5 -42.5t178.5 -118.5q70 -71 100 -148.5t37.5 -178t7.5 -313.5q0 -212 -7.5 -312.5t-37.5 -178.5t-100 -148q-77 -77 -179 -119t-215 -42q-112 0 -214.5 42t-179.5 119q-70 70 -100 148 t-38 178.5t-8 312.5zM301 787q0 -187 7.5 -284.5t33.5 -165.5t80 -122q60 -59 137.5 -90.5t161.5 -31.5q86 0 162.5 31.5t136.5 90.5q56 56 81 123t33 164.5t8 284.5t-8 285.5t-33.5 166t-80.5 122.5q-61 60 -137 90.5t-162 30.5q-84 0 -161 -30.5t-138 -90.5 q-42 -42 -65 -87.5t-36 -114.5t-16.5 -157.5t-3.5 -214.5zM617 1725l214 325h149l-234 -325h-129z" />
<glyph unicode="&#xd4;" horiz-adv-x="1441" d="M181 787q0 213 8 313.5t38 178t100 148.5q77 76 179 118.5t215 42.5q114 0 215.5 -42.5t178.5 -118.5q70 -71 100 -148.5t37.5 -178t7.5 -313.5q0 -212 -7.5 -312.5t-37.5 -178.5t-100 -148q-77 -77 -179 -119t-215 -42q-112 0 -214.5 42t-179.5 119q-70 70 -100 148 t-38 178.5t-8 312.5zM301 787q0 -187 7.5 -284.5t33.5 -165.5t80 -122q60 -59 137.5 -90.5t161.5 -31.5q86 0 162.5 31.5t136.5 90.5q56 56 81 123t33 164.5t8 284.5t-8 285.5t-33.5 166t-80.5 122.5q-61 60 -137 90.5t-162 30.5q-84 0 -161 -30.5t-138 -90.5 q-42 -42 -65 -87.5t-36 -114.5t-16.5 -157.5t-3.5 -214.5zM389 1725l273 325h118l273 -325h-127l-205 242l-205 -242h-127z" />
<glyph unicode="&#xd5;" horiz-adv-x="1441" d="M181 787q0 213 8 313.5t38 178t100 148.5q77 76 179 118.5t215 42.5q114 0 215.5 -42.5t178.5 -118.5q70 -71 100 -148.5t37.5 -178t7.5 -313.5q0 -212 -7.5 -312.5t-37.5 -178.5t-100 -148q-77 -77 -179 -119t-215 -42q-112 0 -214.5 42t-179.5 119q-70 70 -100 148 t-38 178.5t-8 312.5zM301 787q0 -187 7.5 -284.5t33.5 -165.5t80 -122q60 -59 137.5 -90.5t161.5 -31.5q86 0 162.5 31.5t136.5 90.5q56 56 81 123t33 164.5t8 284.5t-8 285.5t-33.5 166t-80.5 122.5q-61 60 -137 90.5t-162 30.5q-84 0 -161 -30.5t-138 -90.5 q-42 -42 -65 -87.5t-36 -114.5t-16.5 -157.5t-3.5 -214.5zM381 1849q70 70 111.5 88t84.5 18q48 0 80 -12.5t73 -40.5q45 -27 68.5 -37t55.5 -10q57 0 130 74l66 -65q-42 -42 -80 -67.5t-63 -32t-53 -6.5q-40 0 -72 13t-80 40q-79 46 -125 46q-31 0 -58 -13.5t-72 -58.5z " />
<glyph unicode="&#xd6;" horiz-adv-x="1441" d="M181 787q0 213 8 313.5t38 178t100 148.5q77 76 179 118.5t215 42.5q114 0 215.5 -42.5t178.5 -118.5q70 -71 100 -148.5t37.5 -178t7.5 -313.5q0 -212 -7.5 -312.5t-37.5 -178.5t-100 -148q-77 -77 -179 -119t-215 -42q-112 0 -214.5 42t-179.5 119q-70 70 -100 148 t-38 178.5t-8 312.5zM301 787q0 -187 7.5 -284.5t33.5 -165.5t80 -122q60 -59 137.5 -90.5t161.5 -31.5q86 0 162.5 31.5t136.5 90.5q56 56 81 123t33 164.5t8 284.5t-8 285.5t-33.5 166t-80.5 122.5q-61 60 -137 90.5t-162 30.5q-84 0 -161 -30.5t-138 -90.5 q-42 -42 -65 -87.5t-36 -114.5t-16.5 -157.5t-3.5 -214.5zM427 1747v170h128v-170h-128zM887 1747v170h128v-170h-128z" />
<glyph unicode="&#xd7;" d="M157 241l343 343l-343 343l69 69l342 -344l344 344l68 -69l-343 -343l343 -343l-68 -68l-344 342l-342 -342z" />
<glyph unicode="&#xd8;" horiz-adv-x="1441" d="M181 787q0 213 8 313.5t38 178t100 148.5q77 76 179 118.5t215 42.5q157 0 288 -77l77 161h117l-108 -226q6 -4 10.5 -9t9.5 -10q70 -71 100 -148.5t37.5 -178t7.5 -313.5q0 -212 -7.5 -312.5t-37.5 -178.5t-100 -148q-77 -77 -179 -119t-215 -42q-157 0 -288 77 l-77 -161h-117l109 226q-8 6 -21 19q-70 70 -100 148t-38 178.5t-8 312.5zM301 787q0 -170 6 -267t27.5 -163t66.5 -118l559 1170q-102 73 -239 73q-84 0 -161 -30.5t-138 -90.5q-42 -42 -65 -87.5t-36 -114.5t-16.5 -157.5t-3.5 -214.5zM482 166q104 -73 239 -73 q86 0 162.5 31.5t136.5 90.5q56 56 81 123t33 164.5t8 284.5q0 171 -6 267.5t-28 163.5t-66 118z" />
<glyph unicode="&#xd9;" horiz-adv-x="1519" d="M221 511v1064h119v-1049q0 -130 52.5 -227.5t148.5 -151.5t220 -54q122 0 219 54t149.5 151.5t52.5 227.5v1049h118v-1064q0 -151 -68.5 -271t-191 -186.5t-279.5 -66.5q-155 0 -278.5 66.5t-192.5 186.5t-69 271zM502 2050h149l214 -325h-129z" />
<glyph unicode="&#xda;" horiz-adv-x="1519" d="M221 511v1064h119v-1049q0 -130 52.5 -227.5t148.5 -151.5t220 -54q122 0 219 54t149.5 151.5t52.5 227.5v1049h118v-1064q0 -151 -68.5 -271t-191 -186.5t-279.5 -66.5q-155 0 -278.5 66.5t-192.5 186.5t-69 271zM657 1725l214 325h149l-234 -325h-129z" />
<glyph unicode="&#xdb;" horiz-adv-x="1519" d="M221 511v1064h119v-1049q0 -130 52.5 -227.5t148.5 -151.5t220 -54q122 0 219 54t149.5 151.5t52.5 227.5v1049h118v-1064q0 -151 -68.5 -271t-191 -186.5t-279.5 -66.5q-155 0 -278.5 66.5t-192.5 186.5t-69 271zM429 1725l273 325h118l273 -325h-127l-205 242 l-205 -242h-127z" />
<glyph unicode="&#xdc;" horiz-adv-x="1519" d="M221 511v1064h119v-1049q0 -130 52.5 -227.5t148.5 -151.5t220 -54q122 0 219 54t149.5 151.5t52.5 227.5v1049h118v-1064q0 -151 -68.5 -271t-191 -186.5t-279.5 -66.5q-155 0 -278.5 66.5t-192.5 186.5t-69 271zM467 1747v170h128v-170h-128zM927 1747v170h128v-170 h-128z" />
<glyph unicode="&#xdd;" horiz-adv-x="1092" d="M22 1575h128l401 -796l391 796h128l-464 -923v-652h-119v652zM443 1725l214 325h149l-234 -325h-129z" />
<glyph unicode="&#xde;" horiz-adv-x="1428" d="M243 0v1575h120v-328h458q105 0 190.5 -29.5t149.5 -89t99.5 -145.5t35.5 -189q0 -211 -133.5 -332.5t-341.5 -121.5h-458v-340h-120zM363 447h445q168 0 268.5 87t100.5 260t-100 260.5t-269 87.5h-445v-695z" />
<glyph unicode="&#xdf;" horiz-adv-x="1216" d="M215 0v1161q0 201 112.5 315.5t311.5 114.5q175 0 290 -91t115 -268t-139 -270q83 -44 112.5 -103t29.5 -171v-392q0 -142 -87 -220q-41 -39 -91 -57.5t-119 -18.5h-119v99h97q49 0 78.5 10.5t65.5 38.5q61 49 61 162v395q0 104 -51 151q-53 51 -143 51h-108v100h86 q97 0 156.5 62t59.5 163q0 118 -77 188q-74 70 -230 70q-102 0 -169 -41t-98.5 -115.5t-31.5 -172.5v-1161h-112z" />
<glyph unicode="&#xe0;" horiz-adv-x="1158" d="M124 292q0 146 99 226.5t273 80.5h344v120q0 132 -70.5 196.5t-229.5 64.5q-112 0 -178 -31t-117 -104l-81 71q46 64 98.5 98.5t121.5 49.5t156 15q414 0 414 -349v-730h-114v106q-67 -67 -139 -93t-186 -26q-77 0 -136 9.5t-102 31.5t-76 56q-77 80 -77 208zM237 294 q0 -106 67.5 -157t210.5 -51q88 0 151 16t115 66q59 56 59 204v137h-331q-272 0 -272 -215zM292 1630h149l214 -325h-129z" />
<glyph unicode="&#xe1;" horiz-adv-x="1158" d="M124 292q0 146 99 226.5t273 80.5h344v120q0 132 -70.5 196.5t-229.5 64.5q-112 0 -178 -31t-117 -104l-81 71q46 64 98.5 98.5t121.5 49.5t156 15q414 0 414 -349v-730h-114v106q-67 -67 -139 -93t-186 -26q-77 0 -136 9.5t-102 31.5t-76 56q-77 80 -77 208zM237 294 q0 -106 67.5 -157t210.5 -51q88 0 151 16t115 66q59 56 59 204v137h-331q-272 0 -272 -215zM447 1305l214 325h149l-234 -325h-129z" />
<glyph unicode="&#xe2;" horiz-adv-x="1158" d="M124 292q0 146 99 226.5t273 80.5h344v120q0 132 -70.5 196.5t-229.5 64.5q-112 0 -178 -31t-117 -104l-81 71q46 64 98.5 98.5t121.5 49.5t156 15q414 0 414 -349v-730h-114v106q-67 -67 -139 -93t-186 -26q-77 0 -136 9.5t-102 31.5t-76 56q-77 80 -77 208zM219 1305 l273 325h118l273 -325h-127l-205 242l-205 -242h-127zM237 294q0 -106 67.5 -157t210.5 -51q88 0 151 16t115 66q59 56 59 204v137h-331q-272 0 -272 -215z" />
<glyph unicode="&#xe3;" horiz-adv-x="1158" d="M124 292q0 146 99 226.5t273 80.5h344v120q0 132 -70.5 196.5t-229.5 64.5q-112 0 -178 -31t-117 -104l-81 71q46 64 98.5 98.5t121.5 49.5t156 15q414 0 414 -349v-730h-114v106q-67 -67 -139 -93t-186 -26q-77 0 -136 9.5t-102 31.5t-76 56q-77 80 -77 208zM211 1429 q70 70 111.5 88t84.5 18q48 0 80 -12.5t73 -40.5q45 -27 68.5 -37t55.5 -10q57 0 130 74l66 -65q-42 -42 -80 -67.5t-63 -32t-53 -6.5q-40 0 -72 13t-80 40q-79 46 -125 46q-31 0 -58 -13.5t-72 -58.5zM237 294q0 -106 67.5 -157t210.5 -51q88 0 151 16t115 66q59 56 59 204 v137h-331q-272 0 -272 -215z" />
<glyph unicode="&#xe4;" horiz-adv-x="1158" d="M124 292q0 146 99 226.5t273 80.5h344v120q0 132 -70.5 196.5t-229.5 64.5q-112 0 -178 -31t-117 -104l-81 71q46 64 98.5 98.5t121.5 49.5t156 15q414 0 414 -349v-730h-114v106q-67 -67 -139 -93t-186 -26q-77 0 -136 9.5t-102 31.5t-76 56q-77 80 -77 208zM237 294 q0 -106 67.5 -157t210.5 -51q88 0 151 16t115 66q59 56 59 204v137h-331q-272 0 -272 -215zM257 1327v170h128v-170h-128zM717 1327v170h128v-170h-128z" />
<glyph unicode="&#xe5;" horiz-adv-x="1158" d="M115 270q0 136 91.5 210.5t252.5 74.5h319v111q0 122 -65.5 181.5t-212.5 59.5q-104 0 -165 -28.5t-108 -96.5l-75 66q42 59 91 91t112.5 46t144.5 14q383 0 383 -323v-676h-105v98q-62 -62 -129 -86t-172 -24q-71 0 -126 9t-94.5 29t-70.5 52q-71 74 -71 192zM219 272 q0 -98 62.5 -145t195.5 -47q81 0 139.5 14.5t106.5 61.5q55 51 55 188v127h-307q-252 0 -252 -199zM299 1497q0 70 34 127.5t91 91.5t127 34t126.5 -34t90.5 -91.5t34 -127.5t-34 -128t-91.5 -92t-125.5 -34t-126 34t-92 92t-34 128zM389 1497q0 -66 48.5 -113.5 t113.5 -47.5q44 0 81 21.5t59 58.5t22 81q0 66 -47 113t-115 47q-66 0 -114 -47t-48 -113z" />
<glyph unicode="&#xe6;" horiz-adv-x="1844" d="M124 292q0 146 99 226.5t273 80.5h344v120q0 132 -70.5 196.5t-229.5 64.5q-112 0 -178 -31t-117 -104l-81 71q46 64 98.5 98.5t121.5 49.5t156 15q151 0 247 -48t135 -140q54 91 142 139.5t204 48.5q100 0 178 -34.5t134 -102t85.5 -163.5t29.5 -220v-50h-741 q0 -203 89 -311.5t257 -108.5q93 0 159 29t136 99l83 -67q-56 -56 -111.5 -91.5t-123 -53.5t-151.5 -18q-133 0 -229 51t-151 148q-44 -72 -99 -115.5t-128 -63.5t-170 -20q-77 0 -136 9.5t-102 31.5t-76 56q-77 80 -77 208zM237 294q0 -106 67.5 -157t210.5 -51 q88 0 151 16t115 66q59 56 59 204v137h-331q-272 0 -272 -215zM954 599h627q-3 79 -9.5 114t-27.5 87q-34 82 -110 131t-166 49q-92 0 -166.5 -48.5t-110.5 -131.5q-20 -52 -27 -90.5t-10 -110.5z" />
<glyph unicode="&#xe7;" horiz-adv-x="1101" d="M152 534q0 169 57 291t162.5 188t249.5 66q114 0 191.5 -35t160.5 -128l-78 -71q-44 50 -86 80t-86 42.5t-102 12.5q-185 0 -283 -142q-39 -56 -55.5 -128t-16.5 -176q0 -105 16 -176t56 -130q98 -142 283 -142q84 0 145.5 30t128.5 105l78 -71q-85 -94 -163 -128.5 t-189 -34.5q-107 0 -193 37.5t-148.5 109.5t-95 174.5t-32.5 225.5zM401 -487l158 333h122l-141 -333h-139z" />
<glyph unicode="&#xe8;" horiz-adv-x="1156" d="M152 534q0 129 29.5 230t84 170t135.5 107t179 38q100 0 178 -34.5t134 -102t85.5 -163.5t29.5 -220v-50h-741q0 -203 89 -311.5t257 -108.5q93 0 159 29t136 99l84 -67q-85 -85 -172 -124t-213 -39q-147 0 -248 62t-153.5 184t-52.5 301zM266 599h627q-3 79 -9.5 114 t-27.5 87q-33 82 -109.5 131t-166.5 49q-92 0 -166.5 -48.5t-110.5 -131.5q-20 -52 -27 -90.5t-10 -110.5zM325 1630h149l214 -325h-129z" />
<glyph unicode="&#xe9;" horiz-adv-x="1156" d="M152 534q0 129 29.5 230t84 170t135.5 107t179 38q100 0 178 -34.5t134 -102t85.5 -163.5t29.5 -220v-50h-741q0 -203 89 -311.5t257 -108.5q93 0 159 29t136 99l84 -67q-85 -85 -172 -124t-213 -39q-147 0 -248 62t-153.5 184t-52.5 301zM266 599h627q-3 79 -9.5 114 t-27.5 87q-33 82 -109.5 131t-166.5 49q-92 0 -166.5 -48.5t-110.5 -131.5q-20 -52 -27 -90.5t-10 -110.5zM480 1305l214 325h149l-234 -325h-129z" />
<glyph unicode="&#xea;" horiz-adv-x="1156" d="M152 534q0 129 29.5 230t84 170t135.5 107t179 38q100 0 178 -34.5t134 -102t85.5 -163.5t29.5 -220v-50h-741q0 -203 89 -311.5t257 -108.5q93 0 159 29t136 99l84 -67q-85 -85 -172 -124t-213 -39q-147 0 -248 62t-153.5 184t-52.5 301zM252 1305l273 325h118l273 -325 h-127l-205 242l-205 -242h-127zM266 599h627q-3 79 -9.5 114t-27.5 87q-33 82 -109.5 131t-166.5 49q-92 0 -166.5 -48.5t-110.5 -131.5q-20 -52 -27 -90.5t-10 -110.5z" />
<glyph unicode="&#xeb;" horiz-adv-x="1156" d="M152 534q0 129 29.5 230t84 170t135.5 107t179 38q100 0 178 -34.5t134 -102t85.5 -163.5t29.5 -220v-50h-741q0 -203 89 -311.5t257 -108.5q93 0 159 29t136 99l84 -67q-85 -85 -172 -124t-213 -39q-147 0 -248 62t-153.5 184t-52.5 301zM266 599h627q-3 79 -9.5 114 t-27.5 87q-33 82 -109.5 131t-166.5 49q-92 0 -166.5 -48.5t-110.5 -131.5q-20 -52 -27 -90.5t-10 -110.5zM290 1327v170h128v-170h-128zM750 1327v170h128v-170h-128z" />
<glyph unicode="&#xec;" horiz-adv-x="542" d="M-2 1509h138l198 -301h-119zM215 0v1066h112v-1066h-112z" />
<glyph unicode="&#xed;" horiz-adv-x="542" d="M124 1208l198 301h138l-217 -301h-119zM215 0v1066h112v-1066h-112z" />
<glyph unicode="&#xee;" horiz-adv-x="542" d="M-78 1208l252 301h110l252 -301h-117l-190 224l-190 -224h-117zM215 0v1066h112v-1066h-112z" />
<glyph unicode="&#xef;" horiz-adv-x="542" d="M-41 1229v157h118v-157h-118zM215 0v1066h112v-1066h-112zM385 1229v157h118v-157h-118z" />
<glyph unicode="&#xf0;" horiz-adv-x="1163" d="M152 534q0 133 28 242.5t105 185.5q117 117 297 117q103 0 165 -37l-148 250h-259v84h211l-118 199h118l114 -199h175v-84h-125l159 -272q85 -145 111 -242.5t26 -243.5q0 -86 -11 -162.5t-40 -145.5t-82 -122q-119 -117 -296 -117q-178 0 -297 117q-53 53 -82 121.5 t-40 144t-11 164.5zM266 534q0 -117 17.5 -207t77.5 -150q90 -91 221 -91q130 0 220 91q60 60 77.5 146.5t17.5 210.5q0 123 -17.5 209t-77.5 146q-88 91 -220 91q-133 0 -221 -91q-60 -60 -77.5 -149t-17.5 -206z" />
<glyph unicode="&#xf1;" horiz-adv-x="1236" d="M215 0v1066h112v-126q120 139 315 139q179 0 282 -102q111 -104 111 -296v-681h-113v661q0 154 -75.5 236.5t-217.5 82.5q-95 0 -162.5 -37.5t-103.5 -109.5t-36 -172v-661h-112zM289 1429q70 70 111.5 88t84.5 18q48 0 80 -12.5t73 -40.5q45 -27 68.5 -37t55.5 -10 q57 0 130 74l66 -65q-42 -42 -80 -67.5t-63 -32t-53 -6.5q-40 0 -72 13t-80 40q-79 46 -125 46q-31 0 -58 -13.5t-72 -58.5z" />
<glyph unicode="&#xf2;" horiz-adv-x="1163" d="M293 534q0 133 28 242.5t105 185.5q117 117 297 117q179 0 296 -117q53 -53 82 -122t40 -145t11 -161q0 -86 -11 -162.5t-40 -145.5t-82 -122q-119 -117 -296 -117q-178 0 -297 117q-53 53 -82 121.5t-40 144t-11 164.5zM294 1630h149l214 -325h-129zM407 534 q0 -117 17.5 -207t77.5 -150q90 -91 221 -91q130 0 220 91q60 60 77.5 146.5t17.5 210.5q0 123 -17.5 209t-77.5 146q-88 91 -220 91q-133 0 -221 -91q-60 -60 -77.5 -149t-17.5 -206z" />
<glyph unicode="&#xf3;" horiz-adv-x="1163" d="M152 534q0 133 28 242.5t105 185.5q117 117 297 117q179 0 296 -117q53 -53 82 -122t40 -145t11 -161q0 -86 -11 -162.5t-40 -145.5t-82 -122q-119 -117 -296 -117q-178 0 -297 117q-53 53 -82 121.5t-40 144t-11 164.5zM266 534q0 -117 17.5 -207t77.5 -150 q90 -91 221 -91q130 0 220 91q60 60 77.5 146.5t17.5 210.5q0 123 -17.5 209t-77.5 146q-88 91 -220 91q-133 0 -221 -91q-60 -60 -77.5 -149t-17.5 -206zM478 1305l214 325h149l-234 -325h-129z" />
<glyph unicode="&#xf4;" horiz-adv-x="1163" d="M152 534q0 133 28 242.5t105 185.5q117 117 297 117q179 0 296 -117q53 -53 82 -122t40 -145t11 -161q0 -86 -11 -162.5t-40 -145.5t-82 -122q-119 -117 -296 -117q-178 0 -297 117q-53 53 -82 121.5t-40 144t-11 164.5zM250 1305l273 325h118l273 -325h-127l-205 242 l-205 -242h-127zM266 534q0 -117 17.5 -207t77.5 -150q90 -91 221 -91q130 0 220 91q60 60 77.5 146.5t17.5 210.5q0 123 -17.5 209t-77.5 146q-88 91 -220 91q-133 0 -221 -91q-60 -60 -77.5 -149t-17.5 -206z" />
<glyph unicode="&#xf5;" horiz-adv-x="1163" d="M152 534q0 133 28 242.5t105 185.5q117 117 297 117q179 0 296 -117q53 -53 82 -122t40 -145t11 -161q0 -86 -11 -162.5t-40 -145.5t-82 -122q-119 -117 -296 -117q-178 0 -297 117q-53 53 -82 121.5t-40 144t-11 164.5zM242 1429q70 70 111.5 88t84.5 18q48 0 80 -12.5 t73 -40.5q45 -27 68.5 -37t55.5 -10q57 0 130 74l66 -65q-42 -42 -80 -67.5t-63 -32t-53 -6.5q-40 0 -72 13t-80 40q-79 46 -125 46q-31 0 -58 -13.5t-72 -58.5zM266 534q0 -117 17.5 -207t77.5 -150q90 -91 221 -91q130 0 220 91q60 60 77.5 146.5t17.5 210.5 q0 123 -17.5 209t-77.5 146q-88 91 -220 91q-133 0 -221 -91q-60 -60 -77.5 -149t-17.5 -206z" />
<glyph unicode="&#xf6;" horiz-adv-x="1163" d="M152 534q0 133 28 242.5t105 185.5q117 117 297 117q179 0 296 -117q53 -53 82 -122t40 -145t11 -161q0 -86 -11 -162.5t-40 -145.5t-82 -122q-119 -117 -296 -117q-178 0 -297 117q-53 53 -82 121.5t-40 144t-11 164.5zM266 534q0 -117 17.5 -207t77.5 -150 q90 -91 221 -91q130 0 220 91q60 60 77.5 146.5t17.5 210.5q0 123 -17.5 209t-77.5 146q-88 91 -220 91q-133 0 -221 -91q-60 -60 -77.5 -149t-17.5 -206zM288 1327v170h128v-170h-128zM748 1327v170h128v-170h-128z" />
<glyph unicode="&#xf7;" d="M118 531v104h902v-104h-902zM491 133v154h155v-154h-155zM491 878v154h155v-154h-155z" />
<glyph unicode="&#xf8;" horiz-adv-x="1163" d="M152 534q0 133 28 242.5t105 185.5q117 117 297 117q133 0 232 -66l89 150h106l-124 -207q73 -77 99.5 -182t26.5 -240q0 -86 -11 -162.5t-40 -145.5t-82 -122q-119 -117 -296 -117q-133 0 -232 64l-89 -148h-107l125 207q-127 135 -127 424zM266 534q0 -108 12.5 -186.5 t57.5 -142.5l425 719q-80 56 -179 56q-133 0 -221 -91q-60 -60 -77.5 -149t-17.5 -206zM403 141q79 -55 179 -55q130 0 220 91q60 60 77.5 146.5t17.5 210.5q0 108 -12 187t-58 140z" />
<glyph unicode="&#xf9;" horiz-adv-x="1236" d="M201 384v682h113v-661q0 -154 75.5 -236.5t218.5 -82.5q95 0 162.5 37.5t103 109.5t35.5 172v661h113v-1066h-113v126q-120 -139 -314 -139q-179 0 -283 102q-111 105 -111 295zM351 1630h149l214 -325h-129z" />
<glyph unicode="&#xfa;" horiz-adv-x="1236" d="M201 384v682h113v-661q0 -154 75.5 -236.5t218.5 -82.5q95 0 162.5 37.5t103 109.5t35.5 172v661h113v-1066h-113v126q-120 -139 -314 -139q-179 0 -283 102q-111 105 -111 295zM506 1305l214 325h149l-234 -325h-129z" />
<glyph unicode="&#xfb;" horiz-adv-x="1236" d="M201 384v682h113v-661q0 -154 75.5 -236.5t218.5 -82.5q95 0 162.5 37.5t103 109.5t35.5 172v661h113v-1066h-113v126q-120 -139 -314 -139q-179 0 -283 102q-111 105 -111 295zM278 1305l273 325h118l273 -325h-127l-205 242l-205 -242h-127z" />
<glyph unicode="&#xfc;" horiz-adv-x="1236" d="M201 384v682h113v-661q0 -154 75.5 -236.5t218.5 -82.5q95 0 162.5 37.5t103 109.5t35.5 172v661h113v-1066h-113v126q-120 -139 -314 -139q-179 0 -283 102q-111 105 -111 295zM316 1327v170h128v-170h-128zM776 1327v170h128v-170h-128z" />
<glyph unicode="&#xfd;" horiz-adv-x="951" d="M31 1066h123l321 -933l321 933h124l-496 -1355q-28 -86 -72 -125q-72 -68 -202 -68h-53v100h42q61 0 95.5 14t57 46.5t42.5 84.5l86 237zM371 1305l214 325h149l-234 -325h-129z" />
<glyph unicode="&#xfe;" horiz-adv-x="1194" d="M215 -509v2084h112v-646q63 85 140 117.5t177 32.5q83 0 150 -24.5t111 -68.5q137 -137 137 -452q0 -317 -137 -454q-95 -93 -261 -93q-100 0 -176 32.5t-141 117.5v-646h-112zM327 534q0 -204 61.5 -326t240.5 -122q177 0 238.5 122t61.5 326q0 201 -61.5 323.5 t-238.5 122.5q-179 0 -240.5 -122.5t-61.5 -323.5z" />
<glyph unicode="&#xff;" horiz-adv-x="951" d="M31 1066h123l321 -933l321 933h124l-496 -1355q-28 -86 -72 -125q-72 -68 -202 -68h-53v100h42q61 0 95.5 14t57 46.5t42.5 84.5l86 237zM181 1327v170h128v-170h-128zM641 1327v170h128v-170h-128z" />
<glyph unicode="&#x152;" horiz-adv-x="2205" d="M181 787q0 213 8 313.5t38 178t100 148.5q77 76 179 118.5t215 42.5q129 0 235.5 -51t185.5 -150v188h933v-104h-817q0 -140 0.5 -227.5t1 -175.5t0.5 -228h693v-93h-693q0 -213 -0.5 -347.5t-1.5 -295.5h823v-104h-939v188q-80 -99 -189.5 -150t-231.5 -51 q-112 0 -214.5 42t-179.5 119q-70 70 -100 148t-38 178.5t-8 312.5zM301 787q0 -187 7.5 -284.5t33.5 -165.5t80 -122q60 -59 137.5 -90.5t161.5 -31.5q86 0 162.5 31.5t136.5 90.5q56 56 81 123t33 164.5t8 284.5t-8 285.5t-33.5 166t-80.5 122.5q-61 60 -137 90.5 t-162 30.5q-84 0 -161 -30.5t-138 -90.5q-42 -42 -65 -87.5t-36 -114.5t-16.5 -157.5t-3.5 -214.5z" />
<glyph unicode="&#x153;" horiz-adv-x="1901" d="M152 534q0 133 28 242.5t105 185.5q117 117 297 117q128 0 226 -60.5t150 -171.5q53 113 146.5 172.5t220.5 59.5q132 0 228 -61.5t147.5 -179t51.5 -279.5v-50h-741q0 -203 89.5 -311.5t257.5 -108.5q92 0 158 29t136 99l85 -67q-86 -85 -173 -124t-213 -39 q-287 0 -393 232q-35 -74 -91 -126t-129.5 -79t-155.5 -27q-178 0 -297 117q-53 53 -82 121.5t-40 144t-11 164.5zM266 534q0 -117 17.5 -207t77.5 -150q90 -91 221 -91q130 0 220 91q60 60 77.5 146.5t17.5 210.5q0 123 -17.5 209t-77.5 146q-88 91 -220 91 q-133 0 -221 -91q-60 -60 -77.5 -149t-17.5 -206zM1011 599h628q-3 72 -10 110.5t-27 90.5q-34 82 -110.5 131t-166.5 49q-92 0 -166.5 -48.5t-109.5 -131.5q-21 -52 -28 -90.5t-10 -110.5z" />
<glyph unicode="&#x178;" horiz-adv-x="1092" d="M22 1575h128l401 -796l391 796h128l-464 -923v-652h-119v652zM253 1747v170h128v-170h-128zM713 1747v170h128v-170h-128z" />
<glyph unicode="&#x2c6;" horiz-adv-x="1105" d="M221 1305l273 325h118l273 -325h-127l-205 242l-205 -242h-127z" />
<glyph unicode="&#x2dc;" horiz-adv-x="1105" d="M213 1429q70 70 111.5 88t84.5 18q48 0 80 -12.5t73 -40.5q45 -27 68.5 -37t55.5 -10q57 0 130 74l66 -65q-42 -42 -80 -67.5t-63 -32t-53 -6.5q-40 0 -72 13t-80 40q-79 46 -125 46q-31 0 -58 -13.5t-72 -58.5z" />
<glyph unicode="&#x2000;" horiz-adv-x="1078" />
<glyph unicode="&#x2001;" horiz-adv-x="2157" />
<glyph unicode="&#x2002;" horiz-adv-x="1078" />
<glyph unicode="&#x2003;" horiz-adv-x="2157" />
<glyph unicode="&#x2004;" horiz-adv-x="719" />
<glyph unicode="&#x2005;" horiz-adv-x="539" />
<glyph unicode="&#x2006;" horiz-adv-x="359" />
<glyph unicode="&#x2007;" horiz-adv-x="359" />
<glyph unicode="&#x2008;" horiz-adv-x="269" />
<glyph unicode="&#x2009;" horiz-adv-x="431" />
<glyph unicode="&#x200a;" horiz-adv-x="119" />
<glyph unicode="&#x2010;" horiz-adv-x="941" d="M181 531v104h580v-104h-580z" />
<glyph unicode="&#x2011;" horiz-adv-x="941" d="M181 531v104h580v-104h-580z" />
<glyph unicode="&#x2012;" horiz-adv-x="941" d="M181 531v104h580v-104h-580z" />
<glyph unicode="&#x2013;" d="M118 531v104h902v-104h-902z" />
<glyph unicode="&#x2014;" horiz-adv-x="1931" d="M181 531v104h1569v-104h-1569z" />
<glyph unicode="&#x2018;" horiz-adv-x="574" d="M211 1420v155l154 155v-310h-154z" />
<glyph unicode="&#x2019;" horiz-adv-x="574" d="M211 1265v310h154v-155z" />
<glyph unicode="&#x201a;" horiz-adv-x="574" d="M211 -154v308h154v-154z" />
<glyph unicode="&#x201c;" horiz-adv-x="920" d="M211 1420v155l154 155v-310h-154zM555 1420v155l155 155v-310h-155z" />
<glyph unicode="&#x201d;" horiz-adv-x="920" d="M211 1265v310h154v-155zM555 1265v310h155v-155z" />
<glyph unicode="&#x201e;" horiz-adv-x="920" d="M211 -154v308h154v-154zM555 -154v308h155v-154z" />
<glyph unicode="&#x2022;" horiz-adv-x="1207" d="M243 739q0 71 28.5 138.5t78 116.5t114.5 77t140 28q74 0 140.5 -28t115 -76.5t76.5 -115t28 -140.5q0 -75 -28 -140t-77 -114.5t-116.5 -78t-138.5 -28.5q-72 0 -138 28.5t-116 78.5t-78.5 116t-28.5 138z" />
<glyph unicode="&#x2026;" horiz-adv-x="1601" d="M211 0v164h163v-164h-163zM719 0v164h163v-164h-163zM1228 0v164h163v-164h-163z" />
<glyph unicode="&#x202f;" horiz-adv-x="431" />
<glyph unicode="&#x2039;" horiz-adv-x="707" d="M93 586l433 434v-146l-287 -288l287 -288v-146z" />
<glyph unicode="&#x203a;" horiz-adv-x="707" d="M181 152v146l288 288l-288 288v146l434 -434z" />
<glyph unicode="&#x205f;" horiz-adv-x="539" />
<glyph unicode="&#x2122;" horiz-adv-x="1789" d="M71 1484v91h636v-91h-269v-853h-98v853h-269zM882 631v944h98l294 -598l294 598h97v-944h-97v724l-243 -481h-101l-244 481v-724h-98z" />
<glyph unicode="&#xe000;" horiz-adv-x="1063" d="M0 0v1064h1064v-1064h-1064z" />
<glyph unicode="&#xfb01;" horiz-adv-x="1209" d="M102 982v84h145v230q0 82 30 145t88.5 98.5t138.5 35.5h98v-100h-78q-163 0 -163 -177v-232h241v-84h-241v-982h-114v982h-145zM869 1435v140h140v-140h-140zM882 0v1066h114v-1066h-114z" />
<glyph unicode="&#xfb02;" horiz-adv-x="1296" d="M102 982v84h145v230q0 82 30 145t88.5 98.5t138.5 35.5h98v-100h-78q-163 0 -163 -177v-232h241v-84h-241v-982h-114v982h-145zM872 276v1299h112v-1296q0 -93 36.5 -136.5t127.5 -43.5h78v-99h-98q-126 0 -191 74.5t-65 201.5z" />
</font>
</defs>
</svg>
